<svg xmlns="http://www.w3.org/2000/svg" xmlns:xlink="http://www.w3.org/1999/xlink" viewBox="0,0,256,256" width="64px" height="64px" fill-rule="none"><defs><linearGradient x1="26.023" y1="19.667" x2="26.023" y2="43.002" gradientUnits="userSpaceOnUse" id="color-1"><stop offset="0" stop-color="#646464"></stop><stop offset="1" stop-color="#646464"></stop></linearGradient><linearGradient x1="32" y1="4.667" x2="32" y2="59.169" gradientUnits="userSpaceOnUse" id="color-2"><stop offset="0" stop-color="#646464"></stop><stop offset="1" stop-color="#646464"></stop></linearGradient><linearGradient x1="43.5" y1="25.333" x2="43.5" y2="37.375" gradientUnits="userSpaceOnUse" id="color-3"><stop offset="0" stop-color="#646464"></stop><stop offset="1" stop-color="#646464"></stop></linearGradient></defs><g fill="none" fill-rule="none" stroke="none" stroke-width="1" stroke-linecap="butt" stroke-linejoin="miter" stroke-miterlimit="10" stroke-dasharray="" stroke-dashoffset="0" font-family="none" font-weight="none" font-size="none" text-anchor="none" style="mix-blend-mode: normal"><g transform="scale(4,4)"><path d="M35.925,30c0.68,5 -1.371,12.17 -9.761,12.17c-5.614,0 -10.164,-4.554 -10.164,-10.167c0,-5.613 4.55,-10.165 10.164,-10.165c2.634,0 5.034,1.001 6.839,2.645c-2.127,2.009 -2.057,2.127 -2.893,2.963c-1.044,-0.864 -2.183,-1.484 -3.946,-1.484c-3.335,0 -5.937,2.703 -5.937,6.038c0,3.335 2.603,6.038 5.937,6.038c3.295,0 4.552,-1.421 5.413,-4.03c-1.59,0 -5.576,0.005 -5.576,0.005v-4.013c-0.001,0 7.937,0 9.924,0z" fill="url(#color-1)" fill-rule="evenodd"></path><path d="M32,58c-14.337,0 -26,-11.663 -26,-26c0,-14.337 11.663,-26 26,-26c14.337,0 26,11.663 26,26c0,14.337 -11.663,26 -26,26zM32,8c-13.233,0 -24,10.767 -24,24c0,13.233 10.767,24 24,24c13.233,0 24,-10.767 24,-24c0,-13.233 -10.767,-24 -24,-24z" fill="url(#color-2)" fill-rule="nonzero"></path><path d="M48,30h-3v-3h-3v3h-3v3h3v3h3v-3h3z" fill="url(#color-3)" fill-rule="evenodd"></path></g></g></svg>