<?xml version="1.0" encoding="UTF-8"?>
<svg xmlns="http://www.w3.org/2000/svg" xmlns:xlink="http://www.w3.org/1999/xlink" width="60px" height="60px" viewBox="0 0 60 60" version="1.1">
<g id="surface1">
<path style=" stroke:none;fill-rule:nonzero;fill:rgb(60%,60%,60%);fill-opacity:1;" d="M 30 0 C 38.277344 0 45.78125 3.367188 51.21875 8.78125 C 56.652344 14.21875 60 21.703125 60 30 C 60 38.277344 56.632812 45.78125 51.21875 51.21875 C 45.78125 56.652344 38.296875 60 30 60 C 21.722656 60 14.21875 56.632812 8.78125 51.21875 C 3.347656 45.78125 0 38.296875 0 30 C 0 21.722656 3.367188 14.21875 8.78125 8.78125 C 14.21875 3.347656 21.703125 0 30 0 Z M 45.601562 20.316406 C 44.449219 20.839844 43.226562 21.164062 41.929688 21.324219 C 43.261719 20.535156 44.269531 19.273438 44.757812 17.78125 C 43.515625 18.519531 42.148438 19.039062 40.691406 19.328125 C 39.519531 18.085938 37.863281 17.3125 36.011719 17.3125 C 32.464844 17.3125 29.605469 20.175781 29.605469 23.71875 C 29.605469 24.222656 29.65625 24.710938 29.765625 25.175781 C 24.4375 24.90625 19.722656 22.351562 16.574219 18.480469 C 16.015625 19.453125 15.710938 20.570312 15.710938 21.703125 C 15.710938 23.917969 16.84375 25.878906 18.554688 27.03125 C 17.511719 26.996094 16.519531 26.707031 15.65625 26.238281 L 15.65625 26.3125 C 15.65625 29.40625 17.871094 31.996094 20.804688 32.589844 C 20.265625 32.734375 19.707031 32.824219 19.113281 32.824219 C 18.699219 32.824219 18.300781 32.789062 17.90625 32.71875 C 18.734375 35.253906 21.089844 37.109375 23.882812 37.164062 C 21.6875 38.890625 18.933594 39.898438 15.925781 39.898438 C 15.40625 39.898438 14.902344 39.863281 14.398438 39.808594 C 17.242188 41.625 20.605469 42.6875 24.222656 42.6875 C 35.992188 42.6875 42.453125 32.933594 42.453125 24.457031 C 42.453125 24.167969 42.453125 23.898438 42.433594 23.628906 C 43.695312 22.730469 44.773438 21.613281 45.621094 20.316406 Z M 49.671875 10.328125 C 44.632812 5.289062 37.683594 2.175781 30 2.175781 C 22.316406 2.175781 15.351562 5.289062 10.328125 10.328125 C 5.289062 15.367188 2.175781 22.316406 2.175781 30 C 2.175781 37.683594 5.289062 44.648438 10.328125 49.671875 C 15.367188 54.710938 22.316406 57.824219 30 57.824219 C 37.683594 57.824219 44.648438 54.710938 49.671875 49.671875 C 54.710938 44.632812 57.824219 37.683594 57.824219 30 C 57.824219 22.316406 54.710938 15.351562 49.671875 10.328125 Z M 49.671875 10.328125 "/>
</g>
</svg>
